<?xml version="1.0" encoding="UTF-8"?><svg id="a" xmlns="http://www.w3.org/2000/svg" viewBox="0 0 402 270"><defs><style>.l{fill:#fa538d;}.m{fill:#fab353;}.n{fill:#e63137;}.o{fill:#fff;}.p{fill:#ffd89b;}.q{fill:#fedde8;}.r{fill:#e5e8f5;}.s{fill:#efefef;}.t{fill:#ff7b35;}.u{fill:#ff912b;}.v{fill:#9dc925;}.w{fill:#b5b5b5;}.x{fill:#d8d8d8;}.y{fill:#ddd;}.z{fill:#1a2e35;}.aa{fill:#56557e;}.ab{fill:#343364;}.ac{opacity:.3;}</style></defs><path id="b" class="x" d="m393.05,164.82c22.94-32.32-14.81-98.65-65.17-97.5-45.36,1.04-44.72,52.2-78.21,46.4-25.82-4.47-54.14-70.27-66.74-79.25C103.89-21.87,9.56,55.63,3.06,124.68c-6.79,72.04,20.58,143.17,118.93,143.17,52.95,0,128.02-21.47,202.76-16.48,53.59,3.58,48.97-59.3,68.3-86.55Z"/><g id="c"><circle class="y" cx="327.12" cy="24.32" r="6.06"/><path class="s" d="m93.15,78.24c-6.97,0-12.65-5.68-12.65-12.65s5.68-12.65,12.65-12.65,12.65,5.68,12.65,12.65-5.68,12.65-12.65,12.65Zm0-20.97c-4.59,0-8.32,3.73-8.32,8.32s3.73,8.32,8.32,8.32,8.32-3.73,8.32-8.32-3.73-8.32-8.32-8.32Z"/><path class="y" d="m377.92,65.59c-6.34,0-11.49-5.16-11.49-11.5s5.15-11.49,11.49-11.49,11.5,5.15,11.5,11.49-5.16,11.5-11.5,11.5Zm0-19.34c-4.33,0-7.85,3.52-7.85,7.85s3.52,7.85,7.85,7.85,7.85-3.52,7.85-7.85-3.52-7.85-7.85-7.85Z"/><path class="x" d="m262.19,42.6l5.1-5.1c1.69-1.69,1.69-4.43,0-6.12s-4.43-1.69-6.12,0l-5.1,5.1-5.1-5.1c-1.69-1.69-4.43-1.69-6.12,0s-1.69,4.43,0,6.12l5.1,5.1-5.1,5.1c-1.69,1.69-1.69,4.43,0,6.12.85.85,1.95,1.27,3.06,1.27s2.21-.42,3.06-1.27l5.1-5.1,5.1,5.1c.85.85,1.95,1.27,3.06,1.27s2.21-.42,3.06-1.27c1.69-1.69,1.69-4.43,0-6.12,0,0-5.1-5.1-5.1-5.1Z"/><path class="s" d="m33.49,144.75l2.55-2.55c.85-.85.85-2.21,0-3.06-.85-.85-2.21-.85-3.06,0l-2.55,2.55-2.55-2.55c-.85-.85-2.21-.85-3.06,0s-.85,2.21,0,3.06l2.55,2.55-2.55,2.55c-.85.85-.85,2.21,0,3.06.42.42.98.63,1.53.63s1.11-.21,1.53-.63l2.55-2.55,2.55,2.55c.42.42.98.63,1.53.63s1.11-.21,1.53-.63c.85-.85.85-2.21,0-3.06,0,0-2.55-2.55-2.55-2.55Z"/></g><path class="z" d="m348.01,251.22c0,.09-68.01.17-151.88.17s-151.89-.08-151.89-.17,67.99-.17,151.89-.17,151.88.08,151.88.17Z"/><g id="d"><path id="e" class="w" d="m100.91,77.66h221.8c3.38,0,6.12,2.74,6.12,6.12v127.02c0,3.38-2.74,6.12-6.12,6.12H100.91c-3.38,0-6.12-2.74-6.12-6.12v-127.02c0-3.38,2.74-6.12,6.12-6.12h0Z"/><path id="f" class="o" d="m97.26,72.87h229.43c3.5,0,6.33,2.83,6.33,6.33v129.22c0,3.5-2.83,6.33-6.33,6.33H97.26c-3.5,0-6.33-2.83-6.33-6.33V79.2c0-3.5,2.83-6.33,6.33-6.33h0Z"/><path id="g" class="aa" d="m90.97,88.02l-.05-9.21c0-3.27,2.77-5.93,6.16-5.93h229.78c3.39,0,6.16,2.67,6.16,5.93l-.09,9.21H90.97Z"/><circle id="h" class="l" cx="102.14" cy="80.44" r="2.78"/><circle id="i" class="m" cx="113.11" cy="80.44" r="2.78"/><circle id="j" class="v" cx="124.09" cy="80.44" r="2.78"/><g><path class="u" d="m176.38,111.64c-2.01.75-3.31,2.5-3.31,4.42v42.62c0,8.72,4.14,16.89,11.08,21.86l25.03,16.04c1.66,1.07,3.93,1.07,5.6,0l25.03-16.04c6.94-4.97,11.08-13.14,11.08-21.86v-42.5c0-1.98-1.38-3.76-3.48-4.48-30.41-10.41-42.6-10.69-71.03-.05h0Z"/><path class="t" d="m247.41,111.69c-14.8-5.07-25.29-7.73-35.43-7.9v93.58c.98,0,1.96-.27,2.8-.8l25.03-16.04c6.94-4.97,11.08-13.14,11.08-21.86v-42.5c0-1.98-1.38-3.76-3.48-4.47h0Z"/></g><g><path class="p" d="m227.38,135.08h-2.18c.11-.6.17-1.21.17-1.84v-1.26c0-5.8-4.72-10.51-10.51-10.51h-6.46c-5.8,0-10.51,4.72-10.51,10.51v1.26c0,.63.07,1.24.17,1.84h-2.92c-2.79,0-5.04,2.26-5.04,5.04v10.43c0,12.46,10.1,22.55,22.55,22.55h0c11.7,0,21.19-9.49,21.19-21.19v-10.38c0-3.57-2.89-6.46-6.46-6.46Zm-25.29-1.84v-1.26c0-3.48,2.83-6.31,6.31-6.31h6.46c3.48,0,6.31,2.83,6.31,6.31v1.26c0,.64-.1,1.26-.28,1.84h-18.53c-.18-.58-.28-1.2-.28-1.84Z"/><path class="aa" d="m217.68,147.4c0-3.15-2.55-5.7-5.7-5.7s-5.7,2.55-5.7,5.7c0,2.73,1.91,5,4.47,5.57v7.84c0,.68.56,1.24,1.24,1.24s1.24-.56,1.24-1.24v-7.84c2.56-.57,4.47-2.84,4.47-5.57Z"/></g></g><g><path class="z" d="m61.26,251.19s.27.06.79-.02c.26-.04.57-.11.93-.23.36-.13.76-.32,1.15-.63.19-.16.37-.36.47-.63.1-.26.12-.56.13-.85.02-.3.02-.61.07-.93.05-.32.17-.62.35-.92.34-.59.9-1.15,1.08-1.96.2-.79.06-1.65-.08-2.51-.13-.86-.26-1.79.07-2.69.31-.89.93-1.7,1.25-2.71.31-1.02.17-2.11.23-3.2.03-.54.14-1.09.37-1.59.23-.51.55-.98.8-1.52.51-1.08.6-2.3.74-3.5.07-.6.14-1.21.21-1.83.07-.62.12-1.23.32-1.83.18-.6.43-1.18.68-1.77.12-.3.25-.59.33-.92.06-.34.07-.65.09-.98.03-.66,0-1.32-.08-1.98-.08-.66-.2-1.31-.27-1.98,0-.04,0-.08-.01-.11v-.13s-.13.06-.13.06c-.61.31-1.14.76-1.54,1.3-.41.53-.71,1.13-.95,1.74-.48,1.23-.65,2.52-.89,3.75-.24,1.23-.55,2.44-1.18,3.46-.31.51-.69.97-1.02,1.47-.33.49-.62,1.04-.71,1.63-.17,1.21.5,2.27.36,3.35-.05.53-.26,1.03-.52,1.48-.26.46-.57.88-.85,1.31-.29.43-.57.86-.77,1.32-.21.46-.32.95-.35,1.43-.07.96.07,1.88,0,2.74-.06.87-.36,1.65-.71,2.35-.35.7-.73,1.34-1.05,1.96-.16.31-.31.61-.43.91-.13.3-.19.61-.25.9-.09.59-.08,1.15-.02,1.63.12.98.49,1.69.82,2.08.08.11.16.18.23.25.07.07.13.12.19.16.11.08.16.11.16.11.01-.01-.24-.15-.55-.55-.32-.4-.66-1.1-.78-2.07-.06-.48-.06-1.03.04-1.61.06-.29.12-.59.25-.88.12-.3.27-.59.44-.9.33-.61.71-1.25,1.07-1.95.35-.7.67-1.51.73-2.39.08-.88-.06-1.8.02-2.74.03-.47.14-.94.34-1.39.2-.45.47-.87.76-1.29.29-.42.6-.85.87-1.32.27-.46.49-.98.55-1.55.14-1.14-.52-2.21-.35-3.34.08-.56.36-1.08.69-1.56.33-.49.71-.95,1.03-1.48.65-1.05.97-2.28,1.2-3.52.24-1.24.42-2.51.88-3.72.23-.6.53-1.18.92-1.7.39-.52.89-.95,1.48-1.25l-.13-.07s0,.08.01.12c.07.67.19,1.33.27,1.98.08.65.11,1.3.08,1.95-.02.32-.04.65-.09.95-.07.3-.2.6-.32.89-.25.59-.51,1.18-.69,1.79-.2.61-.26,1.25-.32,1.86-.07.62-.14,1.23-.2,1.83-.14,1.2-.23,2.4-.72,3.44-.24.52-.56,1-.8,1.52-.25.52-.35,1.1-.38,1.65-.06,1.1.08,2.18-.22,3.16-.3.97-.92,1.79-1.24,2.71-.34.93-.2,1.9-.06,2.75.14.86.28,1.7.09,2.46-.17.77-.71,1.32-1.05,1.93-.18.3-.31.63-.35.96-.05.33-.05.64-.06.94-.01.29-.03.58-.12.83-.09.25-.26.44-.44.6-.37.31-.77.5-1.12.63-.35.13-.66.21-.92.25-.25.05-.45.05-.58.06-.13,0-.2,0-.2,0Z"/><path class="z" d="m70.3,217.48s-.01.03-.03.09c-.02.07-.04.15-.06.26-.06.23-.12.57-.23.99-.11.42-.37.9-.59,1.49-.23.59-.46,1.27-.68,2.03-.22.76-.41,1.61-.61,2.52-.21.91-.42,1.88-.92,2.79-.23.46-.5.94-.71,1.45-.21.51-.33,1.08-.41,1.64-.14,1.13-.35,2.28-.62,3.46-.57,2.34-1.12,4.58-1.62,6.61-.51,2.03-.97,3.85-1.36,5.39-.38,1.53-.68,2.77-.9,3.64-.1.42-.18.75-.24.99-.02.11-.04.19-.06.26-.01.06-.02.09-.01.09,0,0,.01-.03.03-.09.02-.07.04-.15.07-.25.07-.24.16-.57.27-.98.23-.87.55-2.11.96-3.62.4-1.54.87-3.36,1.39-5.38.5-2.03,1.05-4.27,1.63-6.61.27-1.18.48-2.35.62-3.48.08-.56.19-1.1.4-1.6.2-.5.46-.97.7-1.44.5-.93.71-1.94.91-2.84.2-.91.38-1.76.59-2.52.21-.76.43-1.44.65-2.03.21-.59.46-1.07.57-1.51.1-.44.15-.77.2-1,.02-.11.03-.19.05-.26,0-.06.01-.09,0-.09Z"/></g><path class="q" d="m63.39,244.68c-.78-2.03-2.14-3.88-2.35-6.05-.16-1.66.38-3.37,0-5-.52-2.19-2.67-3.89-2.64-6.15.01-1.27.73-2.46.68-3.72-.07-1.55-1.26-2.78-2-4.15-1.13-2.09-1.2-4.56-1.59-6.91s-1.28-4.86-3.36-6.01c-.31,1.99-.83,3.35-.67,6.05.06.97,1.18,2.82,1.34,4.94.09,1.27.15,2.54.23,3.81.08,1.24.16,2.49.6,3.65.34.89.88,1.69,1.14,2.6.47,1.72-.15,3.58.23,5.33.32,1.48,1.35,2.75,1.55,4.24.14,1.03-.11,2.09-.33,3.13-.17-.23-.33-.46-.44-.73-.58-1.46.2-3.35-.79-4.57-.58-.72-1.63-.96-2.15-1.72-.27-.4-.36-.9-.47-1.37-.55-2.41-1.75-4.67-3.46-6.47-.12,2.15.36,4.33,1.36,6.23.4.77.9,1.51,1.03,2.37.22,1.39-.56,2.82-.22,4.18.39,1.56,2.14,2.6,2.22,4.21.07,1.36-1.11,2.55-1.02,3.9.04.58.31,1.11.6,1.61,1.05,1.74,2.59,2.95,4.93,2.91l2.86.1-.04-.13c.41.1.8.15,1.12.13v.08c1.87-1.11,2.4-4.48,1.63-6.51Z"/><path class="z" d="m52.64,208.68s0,.04,0,.11c.01.08.02.19.04.33.04.29.09.71.19,1.26.1.55.39,1.17.61,1.91.24.74.48,1.6.69,2.56.21.96.39,2.02.58,3.16.19,1.13.39,2.39.96,3.58.26.6.56,1.2.78,1.83.23.63.33,1.32.39,2.02.1,1.41.28,2.88.55,4.35.57,2.95,1.12,5.76,1.61,8.32.52,2.55.99,4.84,1.39,6.77.4,1.92.73,3.47.95,4.56.11.53.2.94.27,1.24.03.13.06.24.07.32.02.07.03.11.03.11,0,0,0-.04-.01-.11-.01-.08-.03-.19-.06-.32-.06-.3-.13-.71-.23-1.25-.21-1.09-.52-2.65-.9-4.57-.39-1.93-.84-4.23-1.35-6.78-.49-2.56-1.03-5.36-1.6-8.31-.26-1.48-.45-2.92-.55-4.34-.07-.71-.17-1.41-.41-2.06-.23-.65-.53-1.25-.79-1.84-.56-1.17-.76-2.4-.96-3.53-.19-1.14-.38-2.2-.6-3.17-.22-.96-.47-1.82-.71-2.56-.24-.75-.53-1.36-.64-1.9-.11-.54-.17-.96-.22-1.25-.02-.13-.04-.24-.06-.32-.01-.07-.02-.11-.03-.11Z"/><rect class="ab" x="76.35" y="155.31" width="5.3" height="95.91"/><rect class="aa" x="74.88" y="155.31" width="5.3" height="95.91"/><g><path class="r" d="m109.72,150.1c0-3.6,0-7.21-.01-10.81,0-.3-.12-.69-.32-.89-5.11-5.14-10.24-10.27-15.39-15.38-.26-.26-.74-.44-1.11-.45-.65,0-1.31,0-1.96,0v55.1c.61,0,1.22,0,1.84,0,.56,0,.96-.15,1.36-.56,5.04-5.06,10.09-10.1,15.12-15.16.26-.26.45-.73.45-1.11.03-3.58.02-7.16.02-10.75Z"/><path class="n" d="m104.72,146.1c0-3.6,0-7.21-.01-10.81,0-.3-.12-.69-.32-.89-5.11-5.14-10.24-10.27-15.39-15.38-.26-.26-.74-.44-1.11-.45-7.12-.03-14.24-.01-21.35-.03-.57,0-.95.19-1.34.58-5.04,5.06-10.1,10.1-15.13,15.16-.25.25-.43.7-.43,1.05-.02,7.19-.02,14.37,0,21.56,0,.35.19.79.44,1.04,5.03,5.07,10.09,10.1,15.13,15.17.4.4.78.58,1.35.57,7.07-.02,14.15-.02,21.22,0,.56,0,.96-.15,1.36-.56,5.04-5.06,10.09-10.1,15.12-15.16.26-.26.45-.73.45-1.11.03-3.58.02-7.16.02-10.75Z"/><g><path class="o" d="m59.05,146.21l5.46-7.32c.3-.1.65-.17,1.05-.24.4-.06.75-.1,1.05-.1.49,0,.95.06,1.38.19.43.13.78.35,1.06.67.28.32.42.77.42,1.36v6.34h1.88c.1.16.19.38.29.68.1.29.14.6.14.92,0,.59-.14,1.01-.41,1.28-.27.26-.61.39-1.03.39h-.88v2.81c-.16.03-.42.08-.77.13-.36.06-.7.08-1.01.08-.68,0-1.22-.09-1.6-.27-.38-.18-.57-.66-.57-1.42v-1.33h-5.65c-.37-.19-.68-.47-.94-.85-.26-.37-.39-.83-.39-1.37,0-.3.04-.64.11-1.01.07-.37.21-.69.42-.94Zm6.67.91v-4.48h-.07l-2.96,4.48h3.03Z"/><path class="o" d="m78.86,153.6c-1.26,0-2.36-.29-3.33-.86s-1.71-1.42-2.25-2.55c-.54-1.13-.81-2.54-.81-4.22s.27-3.02.81-4.15c.54-1.13,1.29-1.99,2.25-2.57s2.07-.88,3.33-.88,2.34.29,3.3.88c.96.59,1.72,1.45,2.26,2.57.55,1.13.82,2.51.82,4.15s-.27,3.09-.82,4.22c-.55,1.13-1.3,1.98-2.26,2.55-.96.57-2.06.86-3.3.86Zm2.31-7.63c0-.94-.09-1.73-.27-2.38-.18-.65-.45-1.15-.8-1.49s-.77-.51-1.26-.51-.91.17-1.25.51-.6.84-.77,1.49-.26,1.45-.26,2.38c0,1.49.2,2.6.6,3.33.4.72.96,1.08,1.69,1.08s1.32-.36,1.73-1.08c.41-.72.61-1.83.61-3.33Z"/><path class="o" d="m92.56,139.15c-.4-.4-.94-.6-1.62-.6h-.88l-2.67.91c-1.16.38-1.74,1.05-1.74,2,0,.51.12.91.36,1.19.24.29.48.51.71.67l2.38-.74v8.92c0,.73.18,1.23.54,1.5.36.27.93.41,1.7.41.38,0,.73-.02,1.06-.07s.58-.1.75-.14v-12.42c0-.68-.2-1.22-.6-1.62Z"/></g><g id="k"><g><path class="n" d="m45.69,146.04c0-4.12,0-8.25.02-12.37,0-.34.16-.76.39-.99,4.59-4.62,9.19-9.21,13.8-13.81,1.26-1.26,2.5-2.53,3.78-3.76.26-.25.69-.45,1.04-.45,8.25-.02,16.49-.02,24.74-.03.53,0,.91.15,1.3.54,5.82,5.84,11.65,11.65,17.47,17.49.23.24.41.65.41.98.02,8.29.01,16.58.02,24.88,0,.46-.14.79-.47,1.12-4.56,4.54-9.11,9.1-13.66,13.65-1.31,1.3-2.61,2.61-3.95,3.88-.23.22-.61.39-.92.39-8.34.02-16.67.02-25.01,0-.29,0-.66-.15-.87-.35-4.87-4.84-9.73-9.7-14.58-14.55-1.02-1.02-2.06-2.02-3.04-3.07-.24-.26-.43-.69-.44-1.04-.03-4.17-.02-8.34-.02-12.5Zm31.51-29.57c-3.92,0-7.84,0-11.76.01-.28,0-.64.11-.83.29-5.57,5.54-11.13,11.1-16.67,16.67-.23.23-.39.66-.39.99-.02,7.77-.03,15.55,0,23.32,0,.35.18.8.43,1.05,5.49,5.52,11,11.03,16.53,16.52.24.23.65.4.99.41,7.75.02,15.5.01,23.25.03.49,0,.84-.14,1.18-.49,5.45-5.47,10.91-10.93,16.38-16.38.37-.37.5-.74.49-1.25-.01-7.75,0-15.5-.03-23.25,0-.31-.17-.7-.38-.93-1.44-1.49-2.92-2.94-4.38-4.41-3.98-3.98-7.96-7.96-11.93-11.96-.44-.45-.89-.64-1.54-.63-3.78.03-7.57.02-11.35.02Z"/><path class="o" d="m77.21,116.47c3.78,0,7.57.02,11.35-.02.64,0,1.09.18,1.54.63,3.97,4,7.95,7.98,11.93,11.96,1.46,1.47,2.94,2.92,4.38,4.41.22.23.38.62.38.93.02,7.75.01,15.5.03,23.25,0,.5-.12.88-.49,1.25-5.47,5.45-10.93,10.91-16.38,16.38-.34.34-.69.49-1.18.49-7.75-.02-15.5,0-23.25-.03-.33,0-.75-.17-.99-.41-5.53-5.49-11.04-10.99-16.53-16.52-.25-.25-.43-.69-.43-1.05-.02-7.77-.02-15.55,0-23.32,0-.34.16-.76.39-.99,5.54-5.57,11.1-11.13,16.67-16.67.19-.19.55-.29.83-.29,3.92-.02,7.84-.01,11.76-.01Zm27.52,29.63c0-3.6,0-7.21-.01-10.81,0-.3-.12-.69-.32-.89-5.11-5.14-10.24-10.27-15.39-15.38-.26-.26-.74-.44-1.11-.45-7.12-.03-14.24-.01-21.35-.03-.57,0-.95.19-1.34.58-5.04,5.06-10.1,10.1-15.13,15.16-.25.25-.43.7-.43,1.05-.02,7.19-.02,14.37,0,21.56,0,.35.19.79.44,1.04,5.03,5.07,10.09,10.1,15.13,15.17.4.4.78.58,1.35.57,7.07-.02,14.15-.02,21.22,0,.56,0,.96-.15,1.36-.56,5.04-5.06,10.09-10.1,15.12-15.16.26-.26.45-.73.45-1.11.03-3.58.02-7.16.02-10.75Z"/></g></g></g><g class="ac"><path d="m58.73,244.49c.24-.94-.37-1.88-1.06-2.56-.69-.68-1.52-1.29-1.88-2.19-.58-1.46.2-3.35-.79-4.57-.58-.72-1.63-.96-2.15-1.72-.27-.4-.36-.9-.47-1.37-.55-2.41-1.75-4.67-3.46-6.47-.12,2.15.36,4.33,1.36,6.23.4.77.9,1.51,1.03,2.37.22,1.39-.56,2.82-.22,4.18.39,1.56,2.14,2.6,2.22,4.21.07,1.36-1.11,2.55-1.02,3.9.04.58.31,1.11.6,1.61,1.05,1.74,2.59,2.95,4.93,2.91l2.86.1-1.95-6.62Z"/></g></svg>