<?xml version="1.0" encoding="UTF-8"?><svg id="a" xmlns="http://www.w3.org/2000/svg" viewBox="0 0 402 270"><path id="b" d="M10.24,178.1C36.59,125.48,35.47,52.79,103.18,32.15c25.88-7.89,63.18,11.72,90.64,37.52,20.89,19.63,82.83-6.73,148.85,8.83,23.28,5.49,33.67,34.94,29.43,43.73-27.21,56.4-47.77,179.81-164.4,140.02-35.74-12.19-244.93,10.61-197.46-84.14Z" style="fill:#d8d8d8;"/><g id="c"><path id="d" d="M239.41,250.77h43.2c2.34,0,4.24-1.91,4.25-4.25l-21.24-43.9h-43.2l11.68,43.9c1.06,4.96,2.97,4.25,5.31,4.25Z" style="fill:#bbb;"/><path id="e" d="M278.71,244.4h-46.74l-13.46-48.15h39.3l20.89,48.15Z" style="fill:#e8e8e8;"/><path id="f" d="M120.43,47.18h231.23c3.03,0,5.48,2.45,5.48,5.48h0V202.8c0,3.03-2.45,5.48-5.48,5.48H120.43c-3.03,0-5.48-2.45-5.48-5.48h0V52.66c0-3.03,2.45-5.48,5.48-5.48h0Z" style="fill:#37474f;"/><path id="g" d="M249.38,244.39h-42.25c-2.11,0-3.84,2.91-3.84,6.47h49.92c0-3.56-1.73-6.47-3.84-6.47Z" style="fill:#e8e8e8;"/><g><g><path id="h" d="M127.36,58.51h217.37c2.55,0,4.62,2.07,4.62,4.62h0v112.92c0,2.55-2.07,4.61-4.62,4.61H127.36c-2.55,0-4.61-2.07-4.62-4.61V63.12c0-2.55,2.07-4.62,4.62-4.62Z" style="fill:#fff;"/><path id="i" d="M127.32,58.53h217.47c2.53,0,4.57,2.05,4.57,4.57v2.69H122.74v-2.69c0-2.53,2.05-4.57,4.57-4.57Z" style="fill:#f2f5f8;"/><circle id="j" cx="126.81" cy="62.16" r="1.32" style="fill:#fa538d;"/><circle id="k" cx="132" cy="62.16" r="1.32" style="fill:#fab353;"/><circle id="l" cx="137.19" cy="62.16" r="1.32" style="fill:#9dc925;"/></g><g><path d="M187.31,115.62l14.62-19.53c.64-.2,1.4-.37,2.28-.51,.88-.14,1.66-.21,2.34-.21,1.04,0,2.04,.14,2.99,.42,.96,.28,1.74,.78,2.34,1.5,.6,.72,.9,1.74,.9,3.05v17.13h5.03c.2,.36,.41,.86,.63,1.5,.22,.64,.33,1.32,.33,2.04,0,1.28-.3,2.21-.9,2.79-.6,.58-1.36,.87-2.28,.87h-2.82v7.55c-.36,.04-.93,.13-1.71,.27-.78,.14-1.51,.21-2.19,.21-1.52,0-2.7-.22-3.53-.66-.84-.44-1.26-1.46-1.26-3.06v-4.31h-14.92c-.8-.4-1.49-1.02-2.07-1.86-.58-.84-.87-1.86-.87-3.06,0-.68,.08-1.4,.24-2.16,.16-.76,.44-1.42,.84-1.98Zm17.19,1.86l.06-13.12h-.18l-8.87,13.12h8.99Z" style="fill:#bbb;"/><path d="M235.81,133.12c-3.08,0-5.78-.71-8.12-2.13s-4.16-3.54-5.48-6.38c-1.32-2.83-1.98-6.37-1.98-10.6s.68-7.76,2.04-10.57c1.36-2.82,3.2-4.93,5.54-6.35,2.34-1.42,5-2.13,8-2.13s5.61,.71,7.97,2.13c2.36,1.42,4.22,3.54,5.6,6.38,1.38,2.84,2.07,6.35,2.07,10.54s-.67,7.77-2.01,10.6c-1.34,2.84-3.19,4.96-5.54,6.38-2.36,1.42-5.05,2.13-8.09,2.13Zm6.65-19.11c0-2.64-.28-4.84-.84-6.62-.56-1.78-1.34-3.1-2.34-3.98-1-.88-2.18-1.32-3.53-1.32s-2.48,.45-3.47,1.35c-1,.9-1.77,2.23-2.31,3.98-.54,1.76-.81,3.95-.81,6.59,0,3.99,.58,6.99,1.74,8.99,1.16,2,2.78,3,4.85,3s3.81-1,4.97-3c1.16-2,1.74-4.99,1.74-8.99Z" style="fill:#bbb;"/><path d="M254.42,115.62l14.62-19.53c.64-.2,1.4-.37,2.28-.51,.88-.14,1.66-.21,2.34-.21,1.04,0,2.04,.14,2.99,.42,.96,.28,1.74,.78,2.34,1.5,.6,.72,.9,1.74,.9,3.05v17.13h5.03c.2,.36,.41,.86,.63,1.5,.22,.64,.33,1.32,.33,2.04,0,1.28-.3,2.21-.9,2.79-.6,.58-1.36,.87-2.28,.87h-2.82v7.55c-.36,.04-.93,.13-1.71,.27-.78,.14-1.51,.21-2.19,.21-1.52,0-2.7-.22-3.53-.66-.84-.44-1.26-1.46-1.26-3.06v-4.31h-14.92c-.8-.4-1.49-1.02-2.07-1.86-.58-.84-.87-1.86-.87-3.06,0-.68,.08-1.4,.24-2.16,.16-.76,.44-1.42,.84-1.98Zm17.19,1.86l.06-13.12h-.18l-8.87,13.12h8.99Z" style="fill:#bbb;"/></g></g></g><g id="m"><path id="n" d="M26.35,134.19H215.12c2.88,0,5.21,2.33,5.21,5.21v108.1c0,2.88-2.33,5.21-5.21,5.21H26.35c-2.88,0-5.21-2.33-5.21-5.21v-108.1c0-2.88,2.33-5.21,5.21-5.21Z" style="fill:#e5e8f5;"/><path id="o" d="M28.13,134.19H216.9c2.88,0,5.21,2.33,5.21,5.21v106.32c0,2.88-2.33,5.21-5.21,5.21H28.13c-2.88,0-5.21-2.33-5.21-5.21v-106.32c0-2.88,2.33-5.21,5.21-5.21Z" style="fill:#fff;"/><path id="p" d="M22.95,146.65l-.04-7.58c0-2.69,2.28-4.88,5.07-4.88H217.04c2.79,0,5.07,2.2,5.07,4.88l-.07,7.58H22.95Z" style="fill:#56557e;"/><circle id="q" cx="32.14" cy="140.42" r="2.29" style="fill:#fa538d;"/><circle id="r" cx="41.17" cy="140.42" r="2.29" style="fill:#fab353;"/><circle id="s" cx="50.2" cy="140.42" r="2.29" style="fill:#9dc925;"/><circle cx="99.22" cy="191.35" r="7.85" style="fill:#bbb;"/><circle cx="139.65" cy="191.35" r="7.85" style="fill:#bbb;"/><circle cx="84.43" cy="211.25" r="5.7" style="fill:#fedde8;"/><circle cx="152" cy="211.25" r="5.7" style="fill:#fedde8;"/><path d="M132.15,210.55c-.65,0-1.17-.52-1.17-1.17,0-1.36-3.98-3.35-10.21-3.35s-10.21,1.98-10.21,3.35c0,.65-.52,1.17-1.17,1.17s-1.17-.52-1.17-1.17c0-7.46,25.1-7.46,25.09,0,0,.65-.52,1.17-1.17,1.17Z" style="fill:#bbb;"/></g><g id="t"><circle cx="9.07" cy="99.93" r="8.96" style="fill:#ddd;"/><circle cx="387.62" cy="30.38" r="6.06" style="fill:#ddd;"/><path d="M84.1,89.94c-6.97,0-12.65-5.68-12.65-12.65s5.68-12.65,12.65-12.65,12.65,5.68,12.65,12.65-5.68,12.65-12.65,12.65Zm0-20.97c-4.59,0-8.32,3.73-8.32,8.32s3.73,8.32,8.32,8.32,8.32-3.73,8.32-8.32-3.73-8.32-8.32-8.32Z" style="fill:#efefef;"/><path d="M389.41,88.79c-6.34,0-11.49-5.16-11.49-11.5s5.15-11.49,11.49-11.49,11.5,5.15,11.5,11.49-5.16,11.5-11.5,11.5Zm0-19.34c-4.33,0-7.85,3.52-7.85,7.85s3.52,7.85,7.85,7.85,7.85-3.52,7.85-7.85-3.52-7.85-7.85-7.85Z" style="fill:#ddd;"/><path d="M325.25,12.48l5.1-5.1c1.69-1.69,1.69-4.43,0-6.12-1.69-1.69-4.43-1.69-6.12,0l-5.1,5.1-5.1-5.1c-1.69-1.69-4.43-1.69-6.12,0s-1.69,4.43,0,6.12l5.1,5.1-5.1,5.1c-1.69,1.69-1.69,4.43,0,6.12,.85,.85,1.95,1.27,3.06,1.27s2.21-.42,3.06-1.27l5.1-5.1,5.1,5.1c.85,.85,1.95,1.27,3.06,1.27s2.21-.42,3.06-1.27c1.69-1.69,1.69-4.43,0-6.12l-5.1-5.1Z" style="fill:#d8d8d8;"/><path d="M50.96,39.51l2.55-2.55c.85-.85,.85-2.21,0-3.06-.85-.85-2.21-.85-3.06,0l-2.55,2.55-2.55-2.55c-.85-.85-2.21-.85-3.06,0s-.85,2.21,0,3.06l2.55,2.55-2.55,2.55c-.85,.85-.85,2.21,0,3.06,.42,.42,.98,.63,1.53,.63s1.11-.21,1.53-.63l2.55-2.55,2.55,2.55c.42,.42,.98,.63,1.53,.63s1.11-.21,1.53-.63c.85-.85,.85-2.21,0-3.06l-2.55-2.55Z" style="fill:#d8d8d8;"/></g></svg>