<?xml version="1.0" encoding="UTF-8"?><svg id="a" xmlns="http://www.w3.org/2000/svg" xmlns:xlink="http://www.w3.org/1999/xlink" viewBox="0 0 193 38"><defs><linearGradient id="b" x1="136.43" y1="15.72" x2="151.3" y2="24.22" gradientTransform="matrix(1, 0, 0, 1, 0, 0)" gradientUnits="userSpaceOnUse"><stop offset="0" stop-color="#24b8ce"/><stop offset="1" stop-color="#2d85e5"/></linearGradient><linearGradient id="c" x1="159.11" y1="11.36" x2="189.86" y2="28.35" gradientTransform="matrix(1, 0, 0, 1, 0, 0)" gradientUnits="userSpaceOnUse"><stop offset="0" stop-color="#2d85e5"/><stop offset=".05" stop-color="#2e7de0"/><stop offset=".3" stop-color="#325bcb"/><stop offset=".55" stop-color="#3643bd"/><stop offset=".77" stop-color="#3835b4"/><stop offset=".96" stop-color="#3930b1"/></linearGradient><linearGradient id="d" x1="165.5" y1="8.7" x2="193" y2="24" gradientTransform="matrix(1, 0, 0, 1, 0, 0)" gradientUnits="userSpaceOnUse"><stop offset="0" stop-color="#3930b1"/><stop offset=".2" stop-color="#3834b3"/><stop offset=".43" stop-color="#3641bc"/><stop offset=".66" stop-color="#3358c9"/><stop offset=".91" stop-color="#2e77dc"/><stop offset="1" stop-color="#2d85e5"/></linearGradient></defs><path d="M14.06,27.61c-.57,.29-1.24,.53-1.99,.73-.76,.2-1.64,.3-2.64,.3-1.29,0-2.5-.18-3.64-.54-1.14-.36-2.14-.94-3-1.74-.86-.8-1.54-1.84-2.04-3.11-.5-1.27-.75-2.82-.75-4.65,0-1.66,.25-3.12,.75-4.4,.5-1.27,1.21-2.34,2.14-3.19,.93-.86,2.04-1.5,3.32-1.93s2.72-.64,4.29-.64c1.49,0,2.85,.19,4.09,.56,1.24,.37,2.24,.8,2.98,1.29,.51,.34,.92,.73,1.22,1.16,.3,.43,.45,.97,.45,1.63V29.63c0,1.46-.26,2.72-.79,3.77-.53,1.06-1.25,1.92-2.17,2.59-.92,.67-1.99,1.16-3.22,1.48-1.23,.31-2.56,.47-3.99,.47s-2.78-.14-3.88-.41c-1.1-.27-1.92-.58-2.47-.92-.94-.6-1.41-1.4-1.41-2.4,0-.54,.11-1.02,.34-1.41,.23-.4,.5-.7,.81-.9,.74,.46,1.64,.86,2.7,1.2,1.06,.34,2.19,.51,3.39,.51,1.72,0,3.06-.33,4.03-.99,.97-.66,1.46-1.72,1.46-3.17v-1.84Zm-3.73-3.17c.83,0,1.54-.11,2.12-.34,.59-.23,1.09-.5,1.52-.81V13.59c-.4-.23-.86-.43-1.39-.6-.53-.17-1.17-.26-1.91-.26-1.57,0-2.84,.48-3.79,1.44-.96,.96-1.44,2.44-1.44,4.44,0,1.09,.12,2,.36,2.74,.24,.74,.59,1.34,1.03,1.8,.44,.46,.96,.79,1.57,.99,.6,.2,1.24,.3,1.93,.3Z" style="fill:#00004b;"/><path d="M27.49,29.33c-.26,.06-.6,.13-1.03,.21-.43,.09-.92,.13-1.46,.13-1,0-1.74-.19-2.23-.56-.49-.37-.73-1.03-.73-1.97V13.55c0-.74,.17-1.37,.51-1.89,.34-.51,.84-.97,1.5-1.37,.89-.54,1.98-.99,3.28-1.33,1.3-.34,2.71-.51,4.22-.51,2.72,0,4.07,.84,4.07,2.53,0,.4-.06,.78-.19,1.14-.13,.36-.26,.65-.41,.88-.66-.14-1.47-.21-2.44-.21s-1.94,.11-2.83,.34c-.89,.23-1.64,.51-2.27,.86v15.35Z" style="fill:#00004b;"/><path d="M96.91,8.62c.74,0,1.36,.17,1.87,.51,.5,.34,.75,.92,.75,1.72,0,.37-.11,.97-.32,1.8-.21,.83-.5,1.79-.86,2.87-.36,1.09-.77,2.26-1.22,3.52-.46,1.26-.93,2.49-1.41,3.71-.49,1.22-.97,2.37-1.46,3.45-.49,1.09-.93,2-1.33,2.74-.29,.23-.72,.41-1.29,.56-.57,.14-1.2,.21-1.89,.21-.83,0-1.54-.11-2.12-.32-.59-.21-1.01-.56-1.27-1.05-.26-.49-.57-1.16-.94-2.02-.37-.86-.77-1.83-1.2-2.92-.43-1.09-.87-2.24-1.33-3.45-.46-1.21-.89-2.42-1.31-3.62-.41-1.2-.8-2.36-1.16-3.47-.36-1.11-.65-2.12-.88-3,.29-.34,.69-.64,1.22-.88,.53-.24,1.08-.36,1.65-.36,.74,0,1.35,.17,1.82,.51,.47,.34,.84,.96,1.09,1.84l2.14,7.08c.17,.57,.36,1.18,.58,1.82s.42,1.27,.62,1.89c.2,.62,.39,1.2,.58,1.76,.19,.56,.34,1.02,.45,1.39h.17c.83-2.52,1.64-5.11,2.44-7.78,.8-2.67,1.5-5.31,2.1-7.91,.34-.2,.74-.35,1.18-.45,.44-.1,.88-.15,1.31-.15Z" style="fill:#00004b;"/><path d="M102.01,3c0-.83,.29-1.54,.88-2.12,.59-.59,1.34-.88,2.25-.88s1.66,.29,2.23,.88c.57,.59,.86,1.29,.86,2.12s-.29,1.58-.86,2.17c-.57,.59-1.32,.88-2.23,.88s-1.67-.29-2.25-.88c-.59-.59-.88-1.31-.88-2.17Zm.43,6.22c.23-.06,.56-.13,1.01-.21,.44-.09,.92-.13,1.44-.13,1.03,0,1.78,.19,2.25,.56,.47,.37,.71,1.03,.71,1.97V29.33c-.23,.06-.56,.13-1.01,.21-.44,.09-.92,.13-1.44,.13-1.03,0-1.78-.19-2.25-.56-.47-.37-.71-1.03-.71-1.97V9.22Z" style="fill:#00004b;"/><path d="M124.16,13.59c-.7-.57-1.65-.86-2.85-.86-.83,0-1.59,.1-2.29,.3-.7,.2-1.31,.46-1.82,.77v15.52c-.26,.06-.6,.13-1.03,.21-.43,.09-.91,.13-1.46,.13-1,0-1.74-.19-2.23-.56-.49-.37-.73-1.03-.73-1.97V13.38c0-.69,.14-1.24,.43-1.67,.29-.43,.73-.84,1.33-1.24,.83-.57,1.93-1.05,3.3-1.44,1.37-.39,2.89-.58,4.55-.58,2.94,0,5.22,.65,6.84,1.95,1.61,1.3,2.42,3.21,2.42,5.72v13.21c-.23,.06-.56,.13-1.01,.21-.44,.09-.92,.13-1.44,.13-1.03,0-1.78-.19-2.25-.56-.47-.37-.71-1.03-.71-1.97v-10.85c0-1.23-.35-2.13-1.05-2.7Z" style="fill:#00004b;"/><path d="M165.09,12.74c-1.6,0-2.93,.51-3.99,1.54-1.06,1.03-1.59,2.72-1.59,5.06,0,2.2,.51,3.81,1.52,4.82,1.01,1.02,2.39,1.52,4.14,1.52,.74,0,1.38-.09,1.91-.26,.53-.17,.98-.37,1.35-.6V13.64c-.43-.26-.93-.47-1.5-.64-.57-.17-1.19-.26-1.84-.26Z" style="fill:none;"/><path d="M149.33,10.25c-1.67-1.2-3.91-1.8-6.71-1.8-1.09,0-2.16,.09-3.22,.26-1.06,.17-2,.43-2.83,.77-.6,.29-1.04,.61-1.31,.96-.27,.36-.41,.82-.41,1.39,0,.46,.11,.88,.32,1.26,.21,.39,.48,.69,.79,.92,.83-.4,1.77-.74,2.83-1.01,1.06-.27,2.14-.41,3.26-.41,1.43,0,2.54,.26,3.32,.77,.79,.51,1.18,1.32,1.18,2.4v.77l-5.87,.6c-2.32,.23-4.08,.85-5.3,1.87-1.22,1.02-1.82,2.48-1.82,4.4,0,2.2,.82,3.85,2.47,4.95,1.64,1.1,3.89,1.65,6.75,1.65,1.57,0,2.97-.14,4.2-.43,1.23-.29,2.24-.67,3.04-1.16,.51-.31,.94-.67,1.29-1.07,.34-.4,.51-.94,.51-1.63V15.82c0-2.52-.84-4.37-2.51-5.57Zm-2.77,14.84c-.31,.23-.81,.42-1.5,.58-.69,.16-1.44,.24-2.27,.24-1.37,0-2.37-.23-2.98-.69-.61-.46-.92-1.1-.92-1.93s.3-1.44,.9-1.82c.6-.39,1.47-.64,2.62-.75l4.16-.39v4.76Z" style="fill:url(#b);"/><path d="M173.13,1.72c-.47-.37-1.22-.56-2.25-.56-.51,0-.99,.04-1.44,.11-.44,.07-.78,.15-1.01,.24v7.76c-.54-.23-1.16-.42-1.84-.58-.69-.16-1.41-.24-2.19-.24-1.46,0-2.82,.21-4.07,.64-1.26,.43-2.35,1.09-3.28,1.97-.93,.89-1.67,2.01-2.21,3.37-.54,1.36-.81,2.98-.81,4.87,0,3.63,1.01,6.32,3.02,8.08s4.74,2.64,8.17,2.64c1.54,0,2.9-.19,4.07-.58,1.17-.39,2.12-.81,2.83-1.26,.57-.37,1-.76,1.29-1.16,.29-.4,.43-.93,.43-1.59V3.69c0-.94-.24-1.6-.71-1.97Zm-4.7,23.11c-.37,.23-.82,.43-1.35,.6-.53,.17-1.17,.26-1.91,.26-1.74,0-3.12-.51-4.14-1.52-1.02-1.01-1.52-2.62-1.52-4.82,0-2.34,.53-4.03,1.59-5.06,1.06-1.03,2.39-1.54,3.99-1.54,.66,0,1.27,.09,1.84,.26,.57,.17,1.07,.39,1.5,.64v11.19Z" style="fill:url(#c);"/><path d="M191.41,19.53c-1.06-1.04-2.77-1.84-5.15-2.38l-2.1-.51c-.89-.2-1.51-.46-1.87-.77-.36-.31-.54-.71-.54-1.2,0-.66,.31-1.16,.94-1.52,.63-.36,1.5-.54,2.62-.54,.54,0,1.09,.05,1.65,.15,.56,.1,1.09,.22,1.59,.36,.5,.14,.96,.3,1.37,.47,.41,.17,.75,.34,1.01,.51,.31-.23,.59-.54,.81-.92,.23-.39,.34-.84,.34-1.35,0-.54-.18-1.02-.54-1.44-.36-.41-.86-.77-1.5-1.07s-1.4-.53-2.27-.69c-.87-.16-1.82-.24-2.85-.24-2.69,0-4.77,.58-6.26,1.74-1.49,1.16-2.23,2.67-2.23,4.52,0,1.63,.51,2.93,1.52,3.9,1.01,.97,2.58,1.7,4.7,2.19l2.4,.56c1.72,.37,2.57,1.14,2.57,2.32,0,.69-.3,1.22-.9,1.61-.6,.39-1.49,.58-2.66,.58-1.37,0-2.58-.2-3.62-.6-1.04-.4-1.97-.86-2.77-1.37-.4,.26-.72,.59-.96,.99-.24,.4-.36,.87-.36,1.42,0,.57,.19,1.09,.58,1.57s.93,.87,1.63,1.2c.7,.33,1.53,.58,2.49,.75,.96,.17,2.02,.26,3.19,.26,2.86,0,5.03-.56,6.52-1.69,1.49-1.13,2.23-2.69,2.23-4.7,0-1.69-.53-3.05-1.59-4.1Z" style="fill:url(#d);"/><g><path d="M56.28,19.21c0,1.66-.25,3.15-.75,4.48-.5,1.33-1.21,2.47-2.12,3.41-.92,.94-2.02,1.67-3.3,2.17s-2.73,.75-4.33,.75-3.04-.25-4.33-.75-2.39-1.21-3.3-2.14c-.92-.93-1.62-2.06-2.12-3.39-.5-1.33-.75-2.84-.75-4.52s.25-3.15,.75-4.48c.5-1.33,1.21-2.46,2.14-3.39,.93-.93,2.04-1.64,3.32-2.14,1.29-.5,2.72-.75,4.29-.75s3,.25,4.29,.75c1.29,.5,2.39,1.22,3.32,2.17,.93,.94,1.64,2.08,2.14,3.41,.5,1.33,.75,2.81,.75,4.44Zm-10.51-6.47c-1.54,0-2.76,.56-3.64,1.69-.89,1.13-1.33,2.72-1.33,4.78s.44,3.69,1.31,4.8c.87,1.11,2.09,1.67,3.67,1.67s2.79-.56,3.67-1.69c.87-1.13,1.31-2.72,1.31-4.78s-.44-3.65-1.33-4.78c-.89-1.13-2.1-1.69-3.64-1.69Z" style="fill:#00004b;"/><path d="M79.01,19.21c0,1.66-.25,3.15-.75,4.48-.5,1.33-1.21,2.47-2.12,3.41-.92,.94-2.02,1.67-3.3,2.17s-2.73,.75-4.33,.75-3.04-.25-4.33-.75-2.39-1.21-3.3-2.14c-.92-.93-1.62-2.06-2.12-3.39-.5-1.33-.75-2.84-.75-4.52s.25-3.15,.75-4.48c.5-1.33,1.21-2.46,2.14-3.39,.93-.93,2.04-1.64,3.32-2.14,1.29-.5,2.72-.75,4.29-.75s3,.25,4.29,.75c1.29,.5,2.39,1.22,3.32,2.17,.93,.94,1.64,2.08,2.14,3.41,.5,1.33,.75,2.81,.75,4.44Zm-10.51-6.47c-1.54,0-2.76,.56-3.64,1.69-.89,1.13-1.33,2.72-1.33,4.78s.44,3.69,1.31,4.8c.87,1.11,2.09,1.67,3.67,1.67s2.79-.56,3.67-1.69c.87-1.13,1.31-2.72,1.31-4.78s-.44-3.65-1.33-4.78c-.89-1.13-2.1-1.69-3.64-1.69Z" style="fill:#00004b;"/></g></svg>