<svg width="131" height="34" viewBox="0 0 131 34" fill="none" xmlns="http://www.w3.org/2000/svg">
<path d="M11.9672 24.3067C10.7424 24.91 9.39209 25.2115 8.02819 25.1861C6.97769 25.1919 5.9324 25.0375 4.92804 24.7281C3.97699 24.4413 3.10375 23.94 2.37497 23.2625C1.60662 22.5186 1.01455 21.6107 0.642526 20.606C0.182772 19.3266 -0.033736 17.9719 0.00425892 16.6122C-0.0200066 15.3311 0.196536 14.0569 0.642526 12.8565C1.03471 11.8185 1.65856 10.8847 2.46615 10.1268C3.2801 9.3804 4.244 8.81813 5.29276 8.47799C6.47109 8.09854 7.70272 7.91294 8.94 7.92838C10.118 7.91563 11.2914 8.07611 12.4231 8.40471C13.3214 8.64846 14.181 9.01853 14.9762 9.50392C15.3811 9.76565 15.7336 10.1012 16.0157 10.4932C16.2777 10.9082 16.4052 11.3947 16.3804 11.8856V26.0288C16.4082 27.1417 16.1771 28.2458 15.7056 29.2532C15.2808 30.1215 14.6556 30.8752 13.882 31.4516C13.0607 32.0476 12.1315 32.477 11.1466 32.7157C10.037 32.9914 8.89759 33.1268 7.75465 33.1188C6.6499 33.1276 5.54801 33.0046 4.47213 32.7524C3.72661 32.614 3.00688 32.3607 2.33849 32.0012C1.97351 31.7987 1.6693 31.5014 1.4576 31.1405C1.2459 30.7796 1.13446 30.3683 1.1349 29.9494C1.12485 29.5276 1.22548 29.1105 1.42668 28.7402C1.59231 28.4312 1.8301 28.1671 2.11966 27.9708C2.84215 28.4035 3.61355 28.7479 4.41742 28.9967C5.34885 29.2946 6.32126 29.443 7.29874 29.4364C8.75764 29.4364 9.90044 29.1555 10.7272 28.5937C11.5539 28.0318 11.9672 27.128 11.9672 25.8822V24.3067ZM8.79411 21.5953C9.40872 21.6098 10.0207 21.5104 10.5995 21.3022C11.0595 21.1279 11.4948 20.8939 11.8943 20.606V12.3252C11.5174 12.1146 11.1202 11.9427 10.7089 11.8123C10.1825 11.6549 9.63498 11.5807 9.08589 11.5924C8.49315 11.5666 7.90135 11.662 7.34647 11.873C6.79158 12.084 6.2852 12.4062 5.85808 12.8199C5.04596 13.6382 4.63869 14.9023 4.63626 16.6122C4.61693 17.4053 4.72154 18.1966 4.94627 18.9572C5.12429 19.5315 5.42983 20.0577 5.83985 20.4961C6.20837 20.8821 6.66545 21.1714 7.17109 21.3388C7.69477 21.5118 8.24287 21.5984 8.79411 21.5953Z" fill="#00004B"/>
<path fill-rule="evenodd" clip-rule="evenodd" d="M31.7097 9.47239C31.7027 9.46731 31.6957 9.46225 31.6887 9.45719C30.2697 8.43739 28.3717 7.92749 25.9946 7.92749C25.0806 7.92697 24.1681 8.00005 23.2658 8.14602C22.444 8.27131 21.6394 8.4913 20.8681 8.80161C20.4387 8.9832 20.0585 9.26403 19.7584 9.62109C19.514 9.96576 19.3923 10.3826 19.4128 10.8048C19.4099 11.1805 19.5039 11.5505 19.6856 11.8792C19.8486 12.1863 20.0772 12.4536 20.3551 12.6623C21.1267 12.2986 21.9323 12.0119 22.7601 11.8064C23.6616 11.5692 24.5895 11.4469 25.5216 11.4422C26.7344 11.4422 27.6743 11.6607 28.3414 12.0978C28.6731 12.3191 28.9404 12.6244 29.1161 12.9826C29.2918 13.3409 29.3697 13.7392 29.3419 14.1374V14.7929L24.3573 15.3211C22.3974 15.5153 20.9009 16.0434 19.8676 16.9054C18.8343 17.7674 18.3188 19.0118 18.3212 20.6386C18.3212 22.5058 19.0186 23.908 20.4133 24.8453C21.808 25.7825 23.7182 26.2499 26.1438 26.2475C27.3423 26.2626 28.5386 26.1404 29.7094 25.8833C30.4013 25.7374 31.0727 25.5101 31.7097 25.2066V9.47239ZM28.0685 22.5507C28.5204 22.4694 28.9526 22.3025 29.3419 22.059L29.3456 18.0162L25.8163 18.344C25.0378 18.3849 24.2787 18.6029 23.5969 18.9814C23.3434 19.148 23.1389 19.3792 23.0046 19.6514C22.8703 19.9235 22.811 20.2266 22.8328 20.5293C22.8181 20.8455 22.8815 21.1605 23.0173 21.4463C23.1531 21.7322 23.3572 21.9801 23.6115 22.1683C24.1354 22.558 24.9759 22.751 26.1401 22.751C26.7884 22.7576 27.4354 22.6904 28.0685 22.5507Z" fill="#24B8CE"/>
<rect x="31" width="1" height="34" fill="#00004B"/>
<path d="M40.5708 5.80469H46.688C47.9097 5.80469 48.9951 6.02002 49.9443 6.45068C50.8936 6.87256 51.6362 7.49658 52.1724 8.32275C52.7173 9.14014 52.9897 10.1465 52.9897 11.3418C52.9897 12.2734 52.7876 13.1172 52.3833 13.873C51.979 14.6201 51.4385 15.2354 50.7617 15.7188C50.085 16.2021 49.3291 16.5054 48.4941 16.6284L48.0854 16.7866H40.7422L40.7158 16.0747H47.334C48.4326 16.0747 49.3467 15.8462 50.0762 15.3892C50.8057 14.9321 51.355 14.3433 51.7241 13.6226C52.0933 12.8931 52.2778 12.1328 52.2778 11.3418C52.2778 10.3311 52.0493 9.46973 51.5923 8.75781C51.1353 8.03711 50.4849 7.4834 49.6411 7.09668C48.8062 6.70996 47.8218 6.5166 46.688 6.5166H41.2827V25H40.5708V5.80469ZM53.0425 25L47.7822 16.5361L48.6128 16.5098L53.7939 24.8154V25H53.0425ZM63.062 25.2637C62.1919 25.2637 61.3789 25.0923 60.623 24.7495C59.8672 24.3979 59.2036 23.9058 58.6323 23.2729C58.061 22.6401 57.6128 21.8931 57.2876 21.0317C56.9712 20.1616 56.813 19.208 56.813 18.1709V17.5908C56.813 16.5449 56.9668 15.5913 57.2744 14.73C57.5908 13.8599 58.0215 13.1084 58.5664 12.4756C59.1201 11.834 59.7573 11.3418 60.478 10.999C61.1987 10.6475 61.9722 10.4717 62.7983 10.4717C63.5894 10.4717 64.3145 10.6211 64.9736 10.9199C65.6328 11.21 66.2041 11.623 66.6875 12.1592C67.1797 12.6953 67.5576 13.3369 67.8213 14.084C68.085 14.8311 68.2168 15.6572 68.2168 16.5625V17.3931H57.2744V16.6812H67.5049V16.5098C67.5049 15.5518 67.3115 14.6729 66.9248 13.873C66.5381 13.0645 65.9932 12.4141 65.29 11.9219C64.5869 11.4297 63.7563 11.1836 62.7983 11.1836C62.0073 11.1836 61.2866 11.3506 60.6362 11.6846C59.9946 12.0186 59.4409 12.48 58.9751 13.0688C58.5093 13.6489 58.1489 14.3257 57.894 15.0991C57.6479 15.8726 57.5249 16.7031 57.5249 17.5908V18.1709C57.5249 19.0586 57.6655 19.8892 57.9468 20.6626C58.228 21.436 58.6191 22.1172 59.1201 22.7061C59.6211 23.2861 60.2056 23.7432 60.8735 24.0771C61.5503 24.4023 62.2798 24.5649 63.062 24.5649C63.8794 24.5649 64.6396 24.4287 65.3428 24.1562C66.0547 23.8838 66.7051 23.3652 67.2939 22.6006L67.7949 22.9565C67.4785 23.4048 67.0962 23.8047 66.6479 24.1562C66.2085 24.499 65.6899 24.7715 65.0923 24.9736C64.5034 25.167 63.8267 25.2637 63.062 25.2637ZM72.2246 13.4775V30.4844H71.5127V10.7354H72.2246V13.4775ZM82.4419 17.7227V17.9995C82.4419 19.0894 82.3188 20.0781 82.0728 20.9658C81.8354 21.8535 81.4883 22.6182 81.0312 23.2598C80.5742 23.9014 80.0117 24.3979 79.3438 24.7495C78.6846 25.0923 77.9331 25.2637 77.0894 25.2637C76.2896 25.2637 75.5688 25.1494 74.9272 24.9209C74.2856 24.6924 73.7275 24.376 73.2529 23.9717C72.7871 23.5674 72.4092 23.1104 72.1191 22.6006C71.8291 22.082 71.627 21.5415 71.5127 20.979V15.1782C71.6709 14.5103 71.9038 13.8906 72.2114 13.3193C72.519 12.748 72.9014 12.2515 73.3584 11.8296C73.8154 11.3989 74.3516 11.0649 74.9668 10.8276C75.5908 10.5903 76.2896 10.4717 77.063 10.4717C77.9067 10.4717 78.6626 10.6387 79.3306 10.9727C79.9985 11.3066 80.561 11.79 81.0181 12.4229C81.4839 13.0469 81.8354 13.8071 82.0728 14.7036C82.3188 15.5913 82.4419 16.5977 82.4419 17.7227ZM81.7168 17.9995V17.7227C81.7168 16.7734 81.6201 15.9033 81.4268 15.1123C81.2422 14.3125 80.9565 13.6226 80.5698 13.0425C80.1919 12.4536 79.7085 11.9966 79.1196 11.6714C78.5396 11.3462 77.8584 11.1836 77.0762 11.1836C76.1797 11.1836 75.4238 11.333 74.8086 11.6318C74.2021 11.9219 73.7056 12.2998 73.3188 12.7656C72.9409 13.2227 72.6465 13.7104 72.4355 14.229C72.2334 14.7388 72.084 15.2134 71.9873 15.6528V20.6494C72.1455 21.3701 72.4355 22.0249 72.8574 22.6138C73.2793 23.2026 73.8418 23.6729 74.5449 24.0244C75.2568 24.376 76.1094 24.5518 77.1025 24.5518C77.8848 24.5518 78.5615 24.3892 79.1328 24.064C79.7129 23.7388 80.1919 23.2861 80.5698 22.7061C80.9565 22.1172 81.2422 21.4229 81.4268 20.623C81.6201 19.8232 81.7168 18.9487 81.7168 17.9995ZM85.25 18.1445V17.5908C85.25 16.5449 85.3994 15.5869 85.6982 14.7168C86.0059 13.8467 86.4321 13.0952 86.9771 12.4624C87.5308 11.8296 88.1899 11.3418 88.9546 10.999C89.7192 10.6475 90.563 10.4717 91.4858 10.4717C92.4175 10.4717 93.2656 10.6475 94.0303 10.999C94.7949 11.3418 95.4541 11.8296 96.0078 12.4624C96.5615 13.0952 96.9878 13.8467 97.2866 14.7168C97.5854 15.5869 97.7349 16.5449 97.7349 17.5908V18.1445C97.7349 19.1904 97.5854 20.1484 97.2866 21.0186C96.9878 21.8887 96.5615 22.6401 96.0078 23.2729C95.4629 23.9058 94.8081 24.3979 94.0435 24.7495C93.2788 25.0923 92.4351 25.2637 91.5122 25.2637C90.5806 25.2637 89.7324 25.0923 88.9678 24.7495C88.2031 24.3979 87.5439 23.9058 86.9902 23.2729C86.4365 22.6401 86.0059 21.8887 85.6982 21.0186C85.3994 20.1484 85.25 19.1904 85.25 18.1445ZM85.9619 17.5908V18.1445C85.9619 18.9971 86.085 19.8101 86.3311 20.5835C86.5859 21.3481 86.9507 22.0293 87.4253 22.627C87.8999 23.2246 88.48 23.6948 89.1655 24.0376C89.8511 24.3804 90.6333 24.5518 91.5122 24.5518C92.3823 24.5518 93.1558 24.3804 93.8325 24.0376C94.5181 23.6948 95.0981 23.2246 95.5728 22.627C96.0474 22.0293 96.4077 21.3481 96.6538 20.5835C96.8999 19.8101 97.0229 18.9971 97.0229 18.1445V17.5908C97.0229 16.7559 96.8999 15.9561 96.6538 15.1914C96.4077 14.4268 96.043 13.7456 95.5596 13.1479C95.085 12.5415 94.5049 12.0625 93.8193 11.7109C93.1338 11.3594 92.356 11.1836 91.4858 11.1836C90.6157 11.1836 89.8379 11.3594 89.1523 11.7109C88.4756 12.0625 87.8955 12.5415 87.4121 13.1479C86.9375 13.7456 86.5771 14.4268 86.3311 15.1914C86.085 15.9561 85.9619 16.7559 85.9619 17.5908ZM101.914 13.2139V25H101.202V10.7354H101.914V13.2139ZM107.57 10.6167L107.491 11.2495C107.35 11.2319 107.201 11.2144 107.042 11.1968C106.893 11.1792 106.735 11.1704 106.568 11.1704C105.768 11.1704 105.065 11.333 104.458 11.6582C103.861 11.9834 103.36 12.4316 102.956 13.0029C102.56 13.5742 102.261 14.2334 102.059 14.9805C101.866 15.7188 101.769 16.5098 101.769 17.3535L101.294 17.3931C101.294 16.3911 101.4 15.4683 101.611 14.6245C101.831 13.7808 102.156 13.0513 102.586 12.436C103.026 11.812 103.575 11.3286 104.234 10.9858C104.902 10.6431 105.68 10.4717 106.568 10.4717C106.788 10.4717 106.981 10.4849 107.148 10.5112C107.315 10.5376 107.456 10.5728 107.57 10.6167ZM115.744 10.7354V11.4604H109.139V10.7354H115.744ZM111.775 6.88574H112.5V21.5854C112.5 22.4204 112.597 23.0532 112.791 23.4839C112.993 23.9058 113.256 24.1914 113.582 24.3408C113.916 24.4814 114.271 24.5518 114.649 24.5518C114.922 24.5518 115.164 24.543 115.375 24.5254C115.585 24.499 115.814 24.4683 116.06 24.4331L116.179 25.1055C115.985 25.167 115.735 25.2065 115.427 25.2241C115.12 25.2505 114.874 25.2637 114.689 25.2637C114.083 25.2637 113.56 25.1582 113.12 24.9473C112.689 24.7275 112.355 24.3496 112.118 23.8135C111.89 23.2773 111.775 22.5347 111.775 21.5854V6.88574ZM128.242 21.5063C128.242 21.0757 128.123 20.6406 127.886 20.2012C127.648 19.7529 127.218 19.3354 126.594 18.9487C125.97 18.562 125.069 18.2412 123.891 17.9863C123.091 17.8105 122.388 17.6172 121.782 17.4062C121.184 17.1953 120.683 16.9448 120.279 16.6548C119.875 16.356 119.571 15.9956 119.369 15.5737C119.167 15.1519 119.066 14.6509 119.066 14.0708C119.066 13.5698 119.171 13.104 119.382 12.6733C119.602 12.2339 119.918 11.8516 120.332 11.5264C120.745 11.1924 121.246 10.9331 121.834 10.7485C122.423 10.564 123.091 10.4717 123.838 10.4717C124.902 10.4717 125.812 10.6431 126.567 10.9858C127.332 11.3286 127.917 11.8076 128.321 12.4229C128.734 13.0293 128.94 13.7368 128.94 14.5454H128.215C128.215 13.9565 128.044 13.4072 127.701 12.8975C127.367 12.3877 126.875 11.9746 126.225 11.6582C125.574 11.3418 124.779 11.1836 123.838 11.1836C122.88 11.1836 122.103 11.3286 121.505 11.6187C120.907 11.9087 120.468 12.2734 120.187 12.7129C119.914 13.1523 119.778 13.5962 119.778 14.0444C119.778 14.4136 119.831 14.7563 119.936 15.0728C120.042 15.3804 120.244 15.6704 120.542 15.9429C120.85 16.2065 121.29 16.457 121.861 16.6943C122.432 16.9316 123.179 17.1558 124.102 17.3667C125.236 17.6216 126.159 17.9292 126.871 18.2896C127.583 18.6499 128.105 19.0938 128.439 19.6211C128.782 20.1396 128.954 20.7725 128.954 21.5195C128.954 22.0732 128.835 22.5786 128.598 23.0356C128.369 23.4927 128.035 23.8882 127.596 24.2222C127.165 24.5562 126.638 24.8154 126.014 25C125.398 25.1758 124.708 25.2637 123.944 25.2637C122.792 25.2637 121.817 25.0879 121.017 24.7363C120.226 24.376 119.624 23.9014 119.211 23.3125C118.807 22.7148 118.604 22.0688 118.604 21.3745H119.316C119.378 22.1919 119.646 22.8335 120.121 23.2993C120.604 23.7563 121.188 24.0815 121.874 24.2749C122.568 24.4595 123.258 24.5518 123.944 24.5518C124.884 24.5518 125.671 24.4023 126.304 24.1035C126.945 23.8047 127.429 23.4224 127.754 22.9565C128.079 22.4819 128.242 21.9985 128.242 21.5063Z" fill="#00004B"/>
</svg>
