<?xml version="1.0" encoding="UTF-8"?><svg id="a" xmlns="http://www.w3.org/2000/svg" viewBox="0 0 140 140"><defs><style>.r{fill:#ebeef0;}.s{fill:#fff;}.t{fill:#f1f4f7;}.u{fill:#fafafa;}.v{fill:#fadbe7;}.w{fill:#9396ca;}.x{fill:#bababa;}.y{fill:#babfd5;}.z{fill:#cecfe9;}.aa{fill:#37474f;}.ab{fill:#56557e;}</style></defs><path id="b" class="t" d="m120.93,81.53c-13.05,34.3-3.24,37.28-18.79,49.38-33.48,26.06-32.39-12.43-65.76-10.47-20.74,1.22-36.33-53.69,1.46-61.78,24.72-5.3,8.13-35.63,15.89-47.98,9.35-14.88,38.27-14.07,39.58,1.5,3.15,37.44,44.98,23.69,27.61,69.35Z"/><g id="c"><path id="d" class="ab" d="m33.67,16.98h66.53c1.5,0,2.72,1.22,2.72,2.72v105.52c0,1.5-1.22,2.72-2.72,2.72H33.67c-1.5,0-2.72-1.22-2.72-2.72V19.7c0-1.5,1.22-2.72,2.72-2.72Z"/><path id="e" class="u" d="m37.54,29.34h58.78v90.62h-58.78V29.34Z"/><path id="f" class="r" d="m38.44,29.94h58.78v90.62h-58.78V29.94Z"/><path id="g" class="s" d="m39.64,30.84h58.78v90.62h-58.78V30.84Z"/><path id="h" class="w" d="m51.76,21.16h30.34c.48,0,.87.39.87.87h0v4.55c0,.48-.39.87-.87.87h-30.34c-.48,0-.87-.39-.87-.87t0,0v-4.55c0-.48.39-.87.87-.87h0Z"/><circle id="i" class="z" cx="55.24" cy="24.3" r="1.5"/><circle id="j" class="z" cx="78.63" cy="24.18" r="1.5"/><path id="k" class="aa" d="m77.53,33.18h-21.2c-.95-.01-1.71-.79-1.7-1.74v-7.26h1.2v7.26c-.01.29.21.53.5.54h21.2c.29-.01.51-.25.5-.54v-7.26h1.2v7.26c.01.95-.75,1.72-1.7,1.74Z"/></g><path id="l" class="y" d="m52.99,90.6h-6.6v-6.6h6.6v6.6Zm-6-.6h5.4v-5.4h-5.4v5.4Z"/><path id="m" class="y" d="m55.84,84.76h32.99v1.8h-32.99v-1.8Z"/><path id="n" class="y" d="m55.84,88.65h26.69v1.8h-26.69v-1.8Z"/><path id="o" class="y" d="m52.99,105.6h-6.6v-6.6h6.6v6.6Zm-6-.6h5.4v-5.4h-5.4v5.4Z"/><path id="p" class="y" d="m55.84,99.75h32.99v1.8h-32.99v-1.8Z"/><path id="q" class="y" d="m55.84,103.65h26.69v1.8h-26.69v-1.8Z"/><g><path class="x" d="m63.18,57.3c0,1.8-1.46,3.26-3.26,3.26s-3.26-1.46-3.26-3.26,1.46-3.26,3.26-3.26,3.26,1.46,3.26,3.26Z"/><path class="x" d="m79.96,57.3c0,1.8-1.46,3.26-3.26,3.26s-3.26-1.46-3.26-3.26,1.46-3.26,3.26-3.26,3.26,1.46,3.26,3.26Z"/><path class="v" d="m56.2,65.49c0,1.31-1.06,2.36-2.37,2.36s-2.36-1.06-2.36-2.36,1.06-2.37,2.36-2.37,2.37,1.06,2.37,2.37Z"/><path class="v" d="m84.2,65.56c0,1.31-1.06,2.36-2.36,2.36s-2.37-1.06-2.37-2.36,1.06-2.37,2.37-2.37,2.36,1.06,2.36,2.37Z"/><path class="x" d="m73.59,65.27c-.27,0-.49-.22-.49-.49,0-.57-1.65-1.39-4.24-1.39s-4.24.82-4.24,1.39c0,.27-.22.49-.49.49s-.49-.22-.49-.49c0-3.09,10.42-3.09,10.42,0,0,.27-.22.49-.49.49Z"/></g></svg>