<svg width="141" height="133" viewBox="0 0 141 133" fill="none" xmlns="http://www.w3.org/2000/svg">
<path d="M0.0769066 70.4888C9.31247 33.521 45.2933 24.6761 84.4865 3.71659C90.3745 0.568963 114.431 -2.77479 121.718 3.71659C139.611 19.6573 156.844 87.9792 115.451 101.717C106.209 104.785 84.9367 107.752 62.4299 107.977C24.6869 108.36 -1.61778 104.055 0.0769066 70.4888Z" fill="#EFEFEF"/>
<circle cx="70.5" cy="52.5" r="36.5" fill="white" fill-opacity="0.25"/>
<path d="M53.1371 88.9077C46.0499 85.5314 39.9132 79.9879 35.8449 72.6041C30.8337 63.5094 29.6627 53.0079 32.5523 43.0311C35.4419 33.0543 42.0348 24.796 51.1371 19.7848C69.9121 9.4354 93.607 16.2945 103.956 35.0694C108.968 44.1641 110.139 54.6732 107.249 64.6424C104.359 74.6116 97.759 82.8699 88.6642 87.8887C77.273 94.1698 64.0644 94.109 53.1371 88.9001V88.9077ZM85.5465 21.1232C75.3415 16.264 63.0226 16.2108 52.3918 22.0661C43.9055 26.7427 37.746 34.4459 35.0541 43.7535C32.3622 53.0611 33.4496 62.863 38.1262 71.3494C42.8029 79.8358 50.506 85.9952 59.8136 88.6872C69.1213 91.3791 78.9232 90.2917 87.4095 85.615C95.8959 80.9384 102.055 73.2353 104.747 63.9276C107.439 54.62 106.352 44.8181 101.675 36.3317C97.8806 29.4422 92.1546 24.2713 85.5389 21.1232H85.5465Z" fill="#263238"/>
<path d="M118.747 131.408C116.473 132.807 113.5 132.1 112.1 129.834L86.6717 88.6339C86.4283 88.2461 86.55 87.729 86.9454 87.4933L92.3673 84.1474C92.7475 83.9117 93.2494 84.0181 93.4927 84.3907L120.237 124.625C121.75 126.899 121.073 129.978 118.747 131.416V131.408Z" fill="#263238"/>
<path d="M54.0726 86.9458C46.9854 83.5695 40.8488 78.026 36.7805 70.6422C31.7693 61.5475 30.5982 51.046 33.4878 41.0692C36.3775 31.0924 42.9704 22.8341 52.0727 17.8229C70.8476 7.47349 94.5426 14.3325 104.892 33.1151C109.903 42.2098 111.074 52.7189 108.185 62.6881C105.295 72.6649 98.6945 80.9156 89.5998 85.9344C78.2086 92.2155 65 92.1547 54.0726 86.9458V86.9458ZM86.4744 19.1613C76.2695 14.3021 63.9506 14.2489 53.3198 20.1042C44.841 24.7808 38.6816 32.4839 35.9896 41.7916C33.2977 51.0992 34.3851 60.9011 39.0618 69.3875C43.7384 77.8739 51.4415 84.0333 60.7492 86.7252C70.0568 89.4172 79.8587 88.3297 88.3451 83.6531C96.8315 78.9765 102.991 71.2734 105.683 61.9657C108.375 52.6581 107.287 42.8562 102.611 34.3698C98.8162 27.4803 93.0901 22.3094 86.4744 19.1613V19.1613Z" fill="#455A64"/>
<path d="M87.1724 85.9598L93.9873 81.7558L121.02 125.577C122.114 127.35 121.564 129.673 119.79 130.767L119.396 131.011C117.622 132.105 115.299 131.554 114.205 129.781L87.1724 85.9598V85.9598Z" fill="#455A64"/>
<path d="M62.6435 53.1832C62.6435 55.9411 60.4044 58.187 57.6464 58.187C54.8817 58.187 52.6426 55.9411 52.6426 53.1832C52.6426 50.4184 54.8817 48.1793 57.6464 48.1793C60.4044 48.1793 62.6435 50.4184 62.6435 53.1832Z" fill="#BBBBBB"/>
<path d="M88.3803 53.1832C88.3803 55.9411 86.1412 58.187 83.3833 58.187C80.6185 58.187 78.3794 55.9411 78.3794 53.1832C78.3794 50.4184 80.6185 48.1793 83.3833 48.1793C86.1412 48.1793 88.3803 50.4184 88.3803 53.1832Z" fill="#BBBBBB"/>
<path d="M51.9456 65.7467C51.9456 67.7537 50.3209 69.3716 48.3139 69.3716C46.3137 69.3716 44.689 67.7537 44.689 65.7467C44.689 63.7397 46.3137 62.115 48.3139 62.115C50.3209 62.115 51.9456 63.7397 51.9456 65.7467Z" fill="#FEDDE8"/>
<path d="M94.8728 65.8464C94.8728 67.8534 93.2549 69.4713 91.2479 69.4713C89.2409 69.4713 87.6162 67.8534 87.6162 65.8464C87.6162 63.8394 89.2409 62.2147 91.2479 62.2147C93.2549 62.2147 94.8728 63.8394 94.8728 65.8464Z" fill="#FEDDE8"/>
<path d="M78.6114 65.4096C78.2018 65.4096 77.8673 65.0751 77.8673 64.6587C77.8673 63.7917 75.3346 62.5288 71.3684 62.5288C67.4022 62.5288 64.8695 63.7917 64.8695 64.6587C64.8695 65.0751 64.535 65.4096 64.1254 65.4096C63.709 65.4096 63.3813 65.0751 63.3813 64.6587C63.3813 59.9142 79.3555 59.9142 79.3555 64.6587C79.3555 65.0751 79.021 65.4096 78.6114 65.4096Z" fill="#BBBBBB"/>
<path d="M42.1599 54.0631C42.1113 53.4062 42.0867 52.7431 42.0867 52.0747C42.0867 37.9613 53.0837 26.25 67.5009 24.0262C66.098 23.7766 64.6501 23.646 63.1692 23.646C50.4427 23.646 40.1255 33.2946 40.1255 45.1968C40.1255 48.3572 40.853 51.3589 42.1599 54.0631Z" fill="white"/>
</svg>
