<?xml version="1.0" encoding="UTF-8"?>
<svg fill="none" width="366" height="309" viewBox="0 0 366 309" xmlns="http://www.w3.org/2000/svg">
<path d="m336.99 280.31c-60.931 35.274-208.75 37.382-272.12 3.283-26.509-14.273-36.519-50.345-22.611-74.278 45.235-57.851 95.235-78.261 123.03-95.518 86.021-53.433 163-4.678 180.41 27.475 32.298 57.728 22.298 121.09-8.708 139.04z" fill="#D8D8D8"/>
<path d="m139.26 197.85c-1.528-0.431-4.318 1.13-6.724 2.808-1.942-1.995-4.123-3.686-6.466-5.017 1.072-2.362 1.883-4.821 1.302-6.101-1.355-3.008-9.505-6.333-12.339-4.661-1.436 0.841-2.597 4.066-3.396 6.948-2.817-3e-3 -5.65 0.386-8.408 1.22-1.282-2.506-2.885-5.051-4.3406-5.563-3.1087-1.099-10.472 3.707-11.233 6.908-0.3603 1.507 1.1952 4.085 2.889 6.35-2.205 2.278-3.9892 4.855-5.3263 7.628-2.8709-0.569-6.1474-0.939-7.513-0.06-2.7791 1.791-3.4746 10.544-1.4134 13.125 0.8922 1.09 3.4798 1.492 6.0703 1.584 0.1666 2.415 0.6394 4.816 1.4076 7.166-2.3929 0.82-4.675 1.878-5.3385 3.088-1.5932 2.889 1.9471 10.946 4.9921 12.22 1.7604 0.749 5.6414-1.122 8.4867-2.758 1.4446 1.311 2.9938 2.455 4.63 3.436-1.4918 2.839-3.0657 6.499-2.313 8.155 1.3552 3.007 9.505 6.332 12.339 4.66 1.734-1.009 3.079-5.493 3.827-8.67 2.89 0.117 5.804-0.2 8.683-0.953 1.305 2.712 3.033 5.607 4.645 5.994 3.201 0.761 10.823-3.638 11.251-6.913 0.202-1.517-1.354-4.096-3.007-6.353 2.286-2.205 4.14-4.746 5.564-7.487 3.131 0.724 7.316 1.402 8.927 0.372 2.779-1.791 3.469-10.562 1.413-13.126-0.994-1.233-4.124-1.569-7.028-1.605-0.054-2.236-0.366-4.491-0.951-6.683 2.592-1.19 5.263-2.696 5.851-4.156 1.228-3.069-3.285-10.618-6.452-11.525l-0.029-0.031zm-19.624 36.335c-7.235 4.457-16.732 2.2-21.19-5.036-4.4574-7.235-2.2003-16.732 5.0527-21.195 7.236-4.457 16.733-2.2 21.178 5.059 4.462 7.253 2.2 16.732-5.053 21.195l0.012-0.023z" fill="#bbb"/>
<path d="m150.68 159.84c-0.741-0.203-2.086 0.552-3.243 1.349-0.932-0.962-1.996-1.786-3.142-2.43 0.527-1.149 0.925-2.337 0.643-2.951-0.653-1.453-4.594-3.059-5.981-2.251-0.694 0.403-1.268 1.975-1.642 3.369-1.359 3e-3 -2.74 0.187-4.074 0.59-0.619-1.211-1.395-2.433-2.094-2.688-1.502-0.536-5.072 1.785-5.434 3.351-0.168 0.73 0.579 1.98 1.395 3.073-1.067 1.099-1.931 2.35-2.575 3.69-1.385-0.28-2.974-0.46-3.639-0.026-1.348 0.873-1.68 5.109-0.686 6.342 0.432 0.53 1.673 0.718 2.93 0.766 0.079 1.16 0.316 2.331 0.678 3.465-1.163 0.39-2.266 0.917-2.577 1.496-0.762 1.396 0.938 5.29 2.408 5.913 0.848 0.366 2.726-0.551 4.101-1.335 0.699 0.643 1.448 1.193 2.252 1.669-0.733 1.367-1.5 3.132-1.118 3.949 0.653 1.453 4.594 3.058 5.981 2.251 0.843-0.488 1.487-2.662 1.859-4.192 1.398 0.063 2.808-0.091 4.189-0.47 0.627 1.306 1.463 2.723 2.252 2.893 1.548 0.367 5.236-1.757 5.434-3.351 0.086-0.744-0.655-1.976-1.453-3.075 1.112-1.074 2.005-2.295 2.69-3.628 1.525 0.355 3.544 0.677 4.323 0.17 1.348-0.873 1.68-5.109 0.686-6.343-0.472-0.595-1.996-0.756-3.4-0.778-0.035-1.078-0.174-2.181-0.473-3.236 1.245-0.57 2.554-1.315 2.827-2.019 0.6-1.482-1.589-5.131-3.123-5.581l6e-3 0.018zm-9.484 17.583c-3.507 2.146-8.086 1.064-10.251-2.438-2.164-3.501-1.064-8.086 2.438-10.25 3.501-2.164 8.085-1.064 10.25 2.437 2.146 3.507 1.064 8.086-2.437 10.251z" fill="#bbb"/>
<path d="m247.99 73.001h-106.99c-1.657 0-3 1.3432-3 3v202c0 1.656 1.343 3 3 3h141c1.656 0 3-1.344 3-3v-167.99l-37.013-37.012z" fill="#fff"/>
<path d="m249 83.958 4.337 26.774c0.342 2.113 2.333 3.549 4.447 3.207l26.774-4.337-35.558-25.644z" fill="#D8D8D8"/>
<path d="m248 73.001v32.372c0 2.556 2.072 4.628 4.627 4.628h32.373l-37-37z" fill="#F4F3F3"/>
<path d="m-0.0011458 130.08c0 3.356 2.7209 6.077 6.0763 6.077s6.0763-2.721 6.0763-6.077c0-3.355-2.7209-6.076-6.0763-6.076s-6.0763 2.721-6.0763 6.076z" fill="#ddd"/>
<path d="m25.528 164.66c4.3448 0 7.8722 3.527 7.8722 7.872s-3.5274 7.872-7.8722 7.872-7.8723-3.527-7.8723-7.872 3.5275-7.872 7.8723-7.872zm0 19.401c6.3559 0 11.529-5.173 11.529-11.529s-5.1728-11.529-11.529-11.529-11.529 5.173-11.529 11.529 5.1729 11.529 11.529 11.529z" fill="#ddd"/>
<path d="m52.382 122.52-5.1084-5.109c-1.6992-1.699-1.6992-4.441 0-6.141 1.6885-1.699 4.4416-1.699 6.13 0l5.1192 5.109 5.1083-5.109c1.6992-1.699 4.4416-1.699 6.1408 0 1.6992 1.7 1.6992 4.442 0 6.141l-5.1084 5.109 5.1084 5.108c1.6992 1.699 1.6992 4.441 0 6.141-0.8496 0.849-1.9573 1.269-3.0758 1.269-1.1077 0-2.2154-0.42-3.065-1.269l-5.1083-5.109-5.1192 5.109c-0.8388 0.849-1.9573 1.269-3.065 1.269s-2.2261-0.42-3.065-1.269c-1.6992-1.7-1.6992-4.442 0-6.141l5.1084-5.108z" fill="#D8D8D8"/>
<path d="m120.15 51.595c-0.414 0.4134-1.065 0.4118-1.481-0.0038l-18.301-18.302c-0.416-0.4156-0.4177-1.0671-4e-3 -1.4805 0.413-0.4135 1.065-0.4119 1.48 0.0037l18.302 18.302c0.416 0.4156 0.417 1.0671 4e-3 1.4806z" fill="#D8D8D8"/>
<path d="m140.96 36.043c-0.192 0.192-0.458 0.3098-0.74 0.2942-0.592-0.0015-1.052-0.4616-1.054-1.0538l-0.066-25.82c-1e-3 -0.59221 0.456-1.05 1.049-1.0485 0.592 0.00152 1.052 0.46166 1.054 1.0539l0.066 25.82c0 0.2961-0.117 0.5623-0.295 0.7395l-0.014 0.0147z" fill="#D8D8D8"/>
<path d="m104.44 72.563c-0.192 0.1919-0.458 0.3097-0.74 0.2942l-25.82-0.0662c-0.5922-0.0015-1.0523-0.4616-1.0538-1.0539-0.0016-0.5922 0.4562-1.05 1.0484-1.0484l25.82 0.0661c0.592 0.0015 1.052 0.4617 1.054 1.0539 1e-3 0.2961-0.117 0.5623-0.294 0.7395l-0.015 0.0148z" fill="#D8D8D8"/>
<path d="m288 74.991c0 4.9577 4.033 8.9907 8.991 8.9907 4.968 0 8.99-4.033 8.99-8.9907 0-4.9686-4.022-8.9908-8.99-8.9908-4.958 0-8.991 4.0222-8.991 8.9908z" fill="#ddd"/>
<path d="m260.19 40.262-2.549-2.5595c-0.849-0.8389-0.849-2.2155 0-3.0651 0.839-0.8496 2.216-0.8496 3.065 0l2.549 2.5596 2.559-2.5596c0.85-0.8496 2.227-0.8496 3.065 0 0.85 0.8496 0.85 2.2262 0 3.0651l-2.548 2.5595 2.548 2.5596c0.85 0.8388 0.85 2.2154 0 3.065-0.419 0.4194-0.978 0.6345-1.527 0.6345-0.559 0-1.118-0.2151-1.538-0.6345l-2.559-2.5596-2.549 2.5596c-0.419 0.4194-0.979 0.6345-1.538 0.6345-0.548 0-1.107-0.2151-1.527-0.6345-0.849-0.8496-0.849-2.2262 0-3.065l2.549-2.5596z" fill="#D8D8D8"/>
<path d="m107 85v-1.5h-1.5v1.5h1.5zm0 68h-1.5v1.5h1.5v-1.5zm71 0c0 4.418 3.582 8 8 8s8-3.582 8-8-3.582-8-8-8-8 3.582-8 8zm-50-69.5h-21v3h21v-3zm-22.5 1.5v68h3v-68h-3zm1.5 69.5h79v-3h-79v3z" fill="#8FBA73"/>
<path d="m316 249h1.5v-1.5h-1.5v1.5zm0 42v1.5h1.5v-1.5h-1.5zm-109 0h-1.5v1.5h1.5v-1.5zm8-74.5c0-4.418-3.582-8-8-8s-8 3.582-8 8 3.582 8 8 8 8-3.582 8-8zm80 34h21v-3h-21v3zm19.5-1.5v42h3v-42h-3zm1.5 40.5h-109v3h109v-3zm-107.5 1.5v-74.5h-3v74.5h3z" fill="#FF6369"/>
<path d="m213.23 65h-78.464c-0.977 0-1.768 0.7909-1.768 1.7666v50.467c0 0.975 0.791 1.766 1.768 1.766h78.464c0.977 0 1.768-0.791 1.768-1.766v-50.467c0-0.9757-0.791-1.7666-1.768-1.7666z" fill="#D8D8D8"/>
<path d="m210.54 58h-84.635c-1.053 0-1.907 0.8595-1.907 1.9198v54.843c0 1.06 0.854 1.919 1.907 1.919h84.635c1.053 0 1.907-0.859 1.907-1.919v-54.843c0-1.0603-0.854-1.9198-1.907-1.9198z" fill="#fff"/>
<path d="m168.09 105.24c9.832 0 17.802-8.0249 17.802-17.924s-7.97-17.923-17.802-17.923-17.803 8.0246-17.803 17.923 7.971 17.924 17.803 17.924z" fill="#E5E8F5"/>
<path d="m191.22 90.151c0 11.164-8.988 20.213-20.077 20.213v-20.213h20.077z" fill="#FF6369"/>
<path d="m165.44 80.857s-11.236-16.752-11.227-16.76c3.333-2.2173 7.232-3.4172 11.225-3.4532v20.213h2e-3z" fill="#B0C9F1"/>
<path d="m188.97 86.271h-20.077v-20.213c11.089 0 20.077 9.0493 20.077 20.213z" fill="#B1DA96"/>
<path d="m165.48 87.97v20.213c-11.088 0-20.077-9.0496-20.077-20.213 0-6.9783 3.8-13.657 8.853-16.762 0.012-0.0072 11.226 16.76 11.226 16.76l-2e-3 0.0024z" fill="#F9B25F"/>
<path d="m181.99 79.01-0.336-0.3384 6.65-6.6951h15.293v0.4799h-15.095l-6.51 6.5536h-2e-3z" fill="#B1DA96"/>
<path d="m203.58 69.056h-14.742v1.5982h14.742v-1.5982z" fill="#B1DA96"/>
<path d="m198.87 110.56h-15.293l-6.65-6.695 0.336-0.339 6.512 6.556h15.095v0.48-2e-3z" fill="#FF6369"/>
<path d="m198.85 107.35h-13.128v1.598h13.128v-1.598z" fill="#FF6369"/>
<path d="m149.24 94.411-6.512-6.556h-15.095v-0.4799h15.293l6.65 6.6951-0.336 0.3408z" fill="#F9B25F"/>
<path d="m136.96 84.464h-9.298v1.5982h9.298v-1.5982z" fill="#F9B25F"/>
<path d="m145.91 65.686h-8.5v1.5982h8.5v-1.5982z" fill="#B0C9F1"/>
<path d="m153.38 69.355h-15.293v-0.4799h15.095l4.247-4.2787 0.336 0.3384-4.388 4.4178 3e-3 0.0024z" fill="#B0C9F1"/>
<path d="m153.5 251.5h-1v1h1v-1zm17.167 0c0 2.946 2.387 5.333 5.333 5.333s5.333-2.387 5.333-5.333-2.387-5.333-5.333-5.333-5.333 2.387-5.333 5.333zm-18.167-31v31h2v-31h-2zm1 32h22.5v-2h-22.5v2z" fill="#F9B25F"/>
<path d="m179.24 208h-33.49c-0.417 0-0.755 0.337-0.755 0.752v21.496c0 0.415 0.338 0.752 0.755 0.752h33.49c0.417 0 0.755-0.337 0.755-0.752v-21.496c0-0.415-0.338-0.752-0.755-0.752z" fill="#000" fill-opacity=".2"/>
<path d="m172.24 192h-47.173c-0.587 0-1.063 0.479-1.063 1.07v30.568c0 0.591 0.476 1.07 1.063 1.07h47.173c0.587 0 1.063-0.479 1.063-1.07v-30.568c0-0.591-0.476-1.07-1.063-1.07z" fill="#fff"/>
<path d="m133.01 198h-3.406v21.112h3.406v-21.112z" fill="#B0C9F1"/>
<path d="m169 219.01h-39.395c-0.162 0-0.375-0.132-0.535 0-0.022 8e-3 -0.045 8e-3 -0.067 0-2e-3 0-2e-3 0.934 0 0.934h39.396c0.162 0 0.375 0.132 0.534 0 0.022-8e-3 0.045-8e-3 0.067 0 3e-3 0 3e-3 -0.934 0-0.934z" fill="#B0C9F1"/>
<path d="m133.01 206.86h-3.406v12.25h3.406v-12.25z" fill="#92AED9"/>
<path d="m139.83 202.92h-3.406v16.189h3.406v-16.189z" fill="#FFCA57"/>
<path d="m167 202.92h-3.406v16.189h3.406v-16.189z" fill="#FFCA57"/>
<path d="m153.86 209h-3.243v10h3.243v-10z" fill="#FFCA57"/>
<path d="m139.83 209.72h-3.406v9.394h3.406v-9.394z" fill="#F9B25F"/>
<path d="m167 209.72h-3.406v9.394h3.406v-9.394z" fill="#F9B25F"/>
<path d="m153.86 211h-3.243v8h3.243v-8z" fill="#F9B25F"/>
<path d="m146.64 199.99h-3.407v19.119h3.407v-19.119z" fill="#B0C9F1"/>
<path d="m160.35 197h-3.243v22h3.243v-22z" fill="#B0C9F1"/>
<path d="m146.64 203.6h-3.407v15.514h3.407v-15.514z" fill="#92AED9"/>
<path d="m160.35 201h-3.243v18h3.243v-18z" fill="#92AED9"/>
<path d="m279.12 244.77h-39.232c-0.488 0-0.884 0.413-0.884 0.923v26.383c0 0.51 0.396 0.923 0.884 0.923h39.232c0.488 0 0.884-0.413 0.884-0.923v-26.383c0-0.51-0.396-0.923-0.884-0.923z" fill="#D8D8D8"/>
<path d="m299.51 231h-56.886c-0.708 0-1.282 0.578-1.282 1.29v36.862c0 0.712 0.574 1.29 1.282 1.29h56.886c0.707 0 1.281-0.578 1.281-1.29v-36.862c0-0.712-0.574-1.29-1.281-1.29z" fill="#fff"/>
<path d="m244.09 261.75 3.842 0.079 3.487-0.519 5.878 2.756 2.446-3.636 4.71 0.88 6.288-1.718 10.006 1.278 2.446 1.319 2.851-2.197 1.805 2.958 3.669-2.237 2.446-1.399 2.445-0.281 1.86-1.678v10.25h-54.179v-5.855z" fill="#8765DB" opacity=".2"/>
<path d="m247.18 245.18c-0.285 0-0.569-0.054-0.84-0.151-0.281-0.101-0.537-0.259-0.757-0.463-0.235-0.219-0.423-0.485-0.551-0.78-0.15-0.352-0.221-0.733-0.214-1.113 0-0.381 0.071-0.762 0.217-1.114 0.142-0.345 0.349-0.657 0.615-0.919 0.274-0.27 0.598-0.482 0.953-0.622 0.395-0.158 0.815-0.237 1.242-0.23 0.423-7e-3 0.846 0.068 1.244 0.216 0.701 0.262 1.256 0.815 1.515 1.523 0.139 0.377 0.21 0.776 0.203 1.178 0 0.269-0.021 0.539-0.068 0.805-0.042 0.244-0.106 0.485-0.188 0.718-0.078 0.226-0.178 0.445-0.292 0.657-0.117 0.212-0.245 0.421-0.384 0.618l-1.853 2.658c-0.096 0.13-0.224 0.23-0.373 0.291-0.181 0.083-0.377 0.122-0.573 0.119h-1.689l2.728-3.291c0.057-0.068 0.107-0.132 0.156-0.193 0.05-0.062 0.096-0.126 0.146-0.187-0.181 0.097-0.377 0.169-0.579 0.215-0.214 0.047-0.434 0.072-0.655 0.068l-3e-3 -3e-3zm1.877-2.647c0-0.191-0.028-0.378-0.092-0.557-0.054-0.151-0.142-0.288-0.253-0.403-0.11-0.107-0.245-0.193-0.391-0.244-0.16-0.057-0.331-0.086-0.501-0.082-0.171 0-0.338 0.028-0.495 0.097-0.138 0.061-0.266 0.154-0.366 0.273-0.103 0.118-0.181 0.258-0.231 0.409-0.053 0.165-0.082 0.338-0.078 0.51 0 0.866 0.398 1.3 1.191 1.3 0.338 0.022 0.665-0.107 0.9-0.355 0.22-0.262 0.331-0.6 0.313-0.945l3e-3 -3e-3z" fill="#56557E"/>
<path d="m255.43 241.98c3e-3 0.298-0.054 0.596-0.171 0.869-0.107 0.252-0.263 0.482-0.455 0.676-0.189 0.19-0.413 0.337-0.658 0.438-0.249 0.104-0.516 0.154-0.783 0.154-0.281 0-0.562-0.05-0.825-0.154-0.245-0.101-0.466-0.248-0.65-0.438-0.185-0.194-0.331-0.424-0.427-0.676-0.107-0.276-0.157-0.574-0.153-0.869-4e-3 -0.305 0.046-0.611 0.153-0.898 0.096-0.255 0.238-0.492 0.427-0.69 0.184-0.19 0.405-0.341 0.65-0.445 0.26-0.108 0.541-0.162 0.825-0.158 0.285 0 0.566 0.05 0.829 0.158 0.245 0.1 0.469 0.251 0.654 0.445 0.189 0.198 0.331 0.431 0.427 0.69 0.107 0.287 0.16 0.593 0.157 0.898zm2.702-1.832c0.064-0.072 0.139-0.136 0.217-0.187 0.11-0.064 0.235-0.093 0.359-0.086h1.334l-6.483 8.427c-0.06 0.075-0.135 0.14-0.221 0.187-0.099 0.05-0.209 0.079-0.32 0.075h-1.369l6.48-8.416h3e-3zm-4.107 1.832c0-0.169-0.014-0.338-0.05-0.503-0.025-0.115-0.071-0.223-0.139-0.32-0.053-0.075-0.124-0.132-0.209-0.168-0.086-0.033-0.175-0.051-0.264-0.047-0.089 0-0.177 0.014-0.259 0.047-0.082 0.036-0.153 0.093-0.203 0.168-0.064 0.097-0.107 0.205-0.128 0.32-0.036 0.165-0.05 0.334-0.046 0.503 0 0.162 0.014 0.32 0.046 0.478 0.025 0.107 0.068 0.212 0.128 0.305 0.05 0.072 0.121 0.129 0.203 0.162 0.082 0.032 0.17 0.05 0.259 0.046 0.089 0 0.178-0.014 0.264-0.046 0.081-0.033 0.156-0.09 0.209-0.162 0.068-0.09 0.114-0.194 0.139-0.305 0.036-0.158 0.053-0.316 0.05-0.478zm6.355 4.544c7e-3 0.582-0.217 1.142-0.626 1.555-0.189 0.191-0.413 0.338-0.658 0.439-0.249 0.104-0.516 0.154-0.782 0.154-0.281 0-0.562-0.05-0.825-0.154-0.246-0.101-0.466-0.248-0.651-0.439-0.185-0.194-0.331-0.427-0.427-0.679-0.107-0.28-0.156-0.574-0.153-0.872-3e-3 -0.306 0.046-0.611 0.153-0.898 0.096-0.256 0.238-0.493 0.427-0.69 0.185-0.191 0.405-0.341 0.651-0.446 0.259-0.107 0.54-0.161 0.825-0.158 0.284 0 0.565 0.051 0.828 0.158 0.246 0.101 0.47 0.252 0.655 0.446 0.188 0.197 0.33 0.431 0.426 0.69 0.107 0.287 0.16 0.592 0.157 0.898v-4e-3zm-1.405 0c0-0.169-0.014-0.334-0.05-0.499-0.025-0.115-0.071-0.223-0.138-0.32-0.054-0.075-0.125-0.133-0.21-0.169-0.086-0.032-0.174-0.05-0.263-0.047-0.089 0-0.178 0.015-0.26 0.047-0.082 0.036-0.153 0.094-0.203 0.169-0.064 0.097-0.106 0.205-0.128 0.32-0.035 0.165-0.049 0.33-0.046 0.499 0 0.162 0.014 0.32 0.046 0.478 0.025 0.107 0.068 0.212 0.128 0.305 0.05 0.072 0.121 0.129 0.203 0.162 0.082 0.032 0.171 0.05 0.26 0.046 0.089 0 0.177-0.014 0.263-0.046 0.082-0.033 0.156-0.09 0.21-0.162 0.067-0.09 0.113-0.194 0.138-0.305 0.036-0.155 0.054-0.316 0.05-0.478z" fill="#56557E"/>
<path d="m297.34 248.05h-7.122l3.378-5.332 3.744 5.332z" fill="#C1E2AB"/>
<path d="m246.04 234.19h21c0.462 0 0.836 0.378 0.836 0.845v0.393c0 0.467-0.374 0.845-0.836 0.845h-21c-0.462 0-0.836-0.378-0.836-0.845v-0.391c0-0.467 0.374-0.845 0.836-0.845v-2e-3z" fill="#E5E8F5"/>
<path d="m244.09 261.83h3.842l3.487-0.519 5.878 2.756 2.446-3.636 4.71 0.88 6.288-1.718 10.006 1.278 2.446 1.319 2.851-2.197 1.805 2.958 3.669-2.237 2.446-1.399 2.445-0.281 1.86-1.678" stroke="#8765DB"/>
<path d="m291.4 199.38 4.758-5.005 29.402 27.942-4.758 5.005-29.402-27.942z" fill="#FF6369"/>
<path d="m299.23 154.09c-10.128-17.543-32.56-23.553-50.102-13.425-17.543 10.128-23.553 32.56-13.425 50.102 10.128 17.543 32.56 23.554 50.102 13.425 17.543-10.128 23.554-32.56 13.425-50.102z" fill="#fff" opacity=".8"/>
<path d="m301.33 152.86c10.821 18.708 4.433 42.644-14.279 53.468-18.705 10.827-42.644 4.434-53.465-14.274-10.821-18.707-4.434-42.643 14.279-53.468 15.018-8.691 33.967-6.451 46.548 5.497 2.717 2.579 5.044 5.534 6.922 8.775l-5e-3 2e-3zm-63.558 36.661c1.651 2.861 3.705 5.461 6.102 7.734 13.658 12.915 35.198 12.316 48.121-1.34s12.316-35.197-1.34-48.121c-13.658-12.915-35.197-12.315-48.121 1.34-10.336 10.928-12.276 27.35-4.762 40.387z" fill="#FF6369"/>
<path d="m299.54 201.59c2.191-2.302 5.83-2.391 8.129-0.205l46.871 45.118c2.302 2.191 2.391 5.831 0.205 8.13-2.191 2.302-5.828 2.396-8.13 0.205l-46.868-45.114c-2.302-2.191-2.39-5.83-0.204-8.129l-3e-3 -5e-3z" fill="#FF6369"/>
<path d="m250.86 191.88c-7.339-3.779-11.087-13.213-10.133-21.084 0.88-6.156 3.808-11.838 8.318-16.127 2.73-2.572-1.417-6.672-4.153-4.097-5.723 5.508-9.291 12.882-10.055 20.787-0.792 9.688 4.2 20.982 13.135 25.586 3.329 1.714 6.242-3.345 2.893-5.068l-5e-3 3e-3z" fill="#FF6369" opacity=".3"/>
<path d="m260.46 196.97c-0.814-1.41-2.617-1.893-4.027-1.079s-1.894 2.617-1.079 4.027c0.814 1.41 2.617 1.894 4.027 1.079 1.41-0.814 1.893-2.617 1.079-4.027z" fill="#FF6369" opacity=".3"/>
</svg>
